<?xml version="1.0" standalone="no"?>
<!DOCTYPE svg PUBLIC "-//W3C//DTD SVG 20010904//EN"
 "http://www.w3.org/TR/2001/REC-SVG-20010904/DTD/svg10.dtd">
<svg version="1.0" xmlns="http://www.w3.org/2000/svg"
 width="700.000000pt" height="700.000000pt" viewBox="0 0 700.000000 700.000000"
 preserveAspectRatio="xMidYMid meet">
<metadata>
Created by potrace 1.11, written by Peter Selinger 2001-2013
</metadata>
<g transform="translate(0.000000,700.000000) scale(0.100000,-0.100000)"
fill="#000000" stroke="none">
<path d="M2528 6995 c-1 -2 -37 -6 -78 -9 -68 -6 -155 -18 -220 -31 -107 -21
-146 -30 -225 -51 -191 -53 -372 -124 -544 -216 -110 -58 -287 -167 -343 -212
-14 -11 -41 -32 -59 -46 -98 -73 -272 -236 -369 -345 -212 -238 -400 -544
-505 -820 -51 -135 -118 -360 -130 -440 -1 -11 -10 -60 -18 -110 -9 -49 -20
-126 -24 -170 -15 -153 -7 -590 12 -648 2 -7 6 -30 9 -52 12 -86 18 -114 47
-233 142 -577 465 -1083 939 -1468 376 -306 862 -515 1345 -579 193 -25 543
-26 715 -1 89 13 123 19 184 32 37 8 71 16 75 18 3 2 22 7 41 10 35 5 156 40
240 69 193 66 438 189 623 314 77 51 142 93 146 93 3 0 132 -126 286 -280
l279 -280 253 252 253 253 -38 38 c-20 21 -146 147 -279 280 -134 133 -243
246 -243 251 0 4 21 38 48 75 75 104 86 122 153 243 90 161 138 264 187 398
50 138 101 319 118 420 3 14 7 31 9 39 3 7 8 34 11 60 3 25 7 57 9 71 26 144
26 537 0 710 -2 14 -6 48 -10 75 -10 74 -52 258 -81 355 -56 185 -200 511
-267 604 -4 6 -35 54 -68 106 -283 438 -721 805 -1209 1013 -211 90 -512 172
-705 193 -33 3 -69 8 -80 11 -23 5 -481 13 -487 8z m484 -909 c190 -30 339
-77 513 -160 304 -146 541 -352 738 -645 198 -293 308 -671 302 -1040 -3 -141
-6 -171 -30 -306 -20 -108 -20 -109 -48 -200 -93 -302 -258 -570 -484 -785
-111 -106 -135 -125 -253 -205 -161 -109 -327 -184 -565 -255 -110 -33 -288
-54 -450 -54 -171 0 -229 6 -441 48 -12 2 -54 15 -95 27 -41 13 -76 23 -79 24
-3 1 -16 6 -30 12 -14 6 -50 21 -80 33 -286 113 -592 362 -791 644 -135 191
-249 459 -294 691 -49 250 -39 560 26 818 183 721 805 1267 1553 1362 127 16
380 11 508 -9z"/>
<path d="M5330 1671 l-412 -413 553 -554 c592 -593 635 -631 770 -674 104 -34
247 -35 359 -1 118 36 280 172 333 282 85 176 87 359 5 529 -41 85 -44 88
-618 664 l-577 579 -413 -412z"/>
</g>
</svg>
